<mxfile host="drawio-plugin" modified="2022-10-24T13:00:42.461Z" agent="5.0 (X11; Linux x86_64) AppleWebKit/537.36 (KHTML, like Gecko) Chrome/89.0.4389.114 Safari/537.36" etag="z26BDYbQoKYK8DWotPZn" version="15.5.4" type="embed" pages="2"><diagram id="33bkx_uLFFvx7bbCJEID" name="Page-1"><mxGraphModel dx="1073" dy="-446" grid="1" gridSize="10" guides="1" tooltips="1" connect="1" arrows="1" fold="1" page="1" pageScale="1" pageWidth="827" pageHeight="1169" math="0" shadow="0"><root><mxCell id="0"/><mxCell id="1" parent="0"/><mxCell id="bl-t90TqCPlwm7aX9RKi-1" value="" style="verticalLabelPosition=bottom;html=1;verticalAlign=top;strokeWidth=1;align=center;outlineConnect=0;dashed=0;outlineConnect=0;shape=mxgraph.aws3d.dashedArrowlessEdge2;strokeColor=#2D6195;aspect=fixed;shadow=0;sketch=0;fontSize=11;rotation=20;gradientColor=none;" parent="1" vertex="1"><mxGeometry x="517.76" y="1784.03" width="116.28" height="66.24" as="geometry"/></mxCell><mxCell id="bl-t90TqCPlwm7aX9RKi-2" value="" style="verticalLabelPosition=bottom;html=1;verticalAlign=top;strokeWidth=1;align=center;outlineConnect=0;dashed=0;outlineConnect=0;shape=mxgraph.aws3d.dataCenter;strokeColor=#5E5E5E;aspect=fixed;fontSize=11;" parent="1" vertex="1"><mxGeometry x="783" y="1467" width="123" height="142" as="geometry"/></mxCell><mxCell id="bl-t90TqCPlwm7aX9RKi-3" value="" style="verticalLabelPosition=bottom;html=1;verticalAlign=top;strokeWidth=1;align=center;outlineConnect=0;dashed=0;outlineConnect=0;shape=mxgraph.aws3d.end_user;strokeColor=none;fillColor=#777777;aspect=fixed;" parent="1" vertex="1"><mxGeometry x="30" y="2214.88" width="55.5" height="113.79" as="geometry"/></mxCell><mxCell id="bl-t90TqCPlwm7aX9RKi-4" value="" style="verticalLabelPosition=bottom;html=1;verticalAlign=top;strokeWidth=1;align=center;outlineConnect=0;dashed=0;outlineConnect=0;shape=mxgraph.aws3d.dataServer;strokeColor=#5E5E5E;aspect=fixed;fontSize=11;" parent="1" vertex="1"><mxGeometry x="268.1" y="1980" width="152" height="130.99" as="geometry"/></mxCell><mxCell id="bl-t90TqCPlwm7aX9RKi-5" value="&lt;h1&gt;Server&lt;/h1&gt;" style="text;html=1;strokeColor=none;fillColor=none;align=center;verticalAlign=middle;whiteSpace=wrap;rounded=0;" parent="1" vertex="1"><mxGeometry x="226.15" y="1917" width="126" height="72" as="geometry"/></mxCell><mxCell id="bl-t90TqCPlwm7aX9RKi-6" value="" style="verticalLabelPosition=bottom;html=1;verticalAlign=top;strokeWidth=1;align=center;outlineConnect=0;dashed=0;outlineConnect=0;shape=mxgraph.aws3d.arrowNE;fillColor=#000000;aspect=fixed;fontSize=11;" parent="1" vertex="1"><mxGeometry x="57.75" y="2210" width="91.5" height="52.29" as="geometry"/></mxCell><mxCell id="bl-t90TqCPlwm7aX9RKi-7" value="" style="verticalLabelPosition=bottom;html=1;verticalAlign=top;strokeWidth=1;align=center;outlineConnect=0;dashed=0;outlineConnect=0;shape=mxgraph.aws3d.arrowSW;fillColor=#000000;aspect=fixed;fontSize=11;shadow=0;sketch=0;" parent="1" vertex="1"><mxGeometry x="75.75" y="2219" width="103.47" height="59.13" as="geometry"/></mxCell><mxCell id="bl-t90TqCPlwm7aX9RKi-8" value="&lt;h1&gt;Database&lt;/h1&gt;" style="text;html=1;strokeColor=none;fillColor=none;align=center;verticalAlign=middle;whiteSpace=wrap;rounded=0;" parent="1" vertex="1"><mxGeometry x="783" y="1590" width="126" height="72" as="geometry"/></mxCell><mxCell id="bl-t90TqCPlwm7aX9RKi-9" value="" style="verticalLabelPosition=bottom;html=1;verticalAlign=top;strokeWidth=1;align=center;outlineConnect=0;dashed=0;outlineConnect=0;shape=mxgraph.aws3d.application_server;fillColor=#ECECEC;strokeColor=#5E5E5E;aspect=fixed;shadow=0;sketch=0;fontSize=11;" parent="1" vertex="1"><mxGeometry x="324" y="1773" width="123" height="124" as="geometry"/></mxCell><mxCell id="bl-t90TqCPlwm7aX9RKi-10" value="&lt;h1&gt;&lt;span class=&quot;VIiyi&quot; lang=&quot;en&quot;&gt;&lt;span class=&quot;JLqJ4b ChMk0b&quot;&gt;&lt;span class=&quot;Q4iAWc&quot;&gt;API`s&lt;/span&gt;&lt;/span&gt;&lt;/span&gt;&lt;/h1&gt;" style="text;html=1;strokeColor=none;fillColor=none;align=center;verticalAlign=middle;whiteSpace=wrap;rounded=0;" parent="1" vertex="1"><mxGeometry x="299" y="1728" width="126" height="72" as="geometry"/></mxCell><mxCell id="bl-t90TqCPlwm7aX9RKi-11" value="" style="verticalLabelPosition=bottom;html=1;verticalAlign=top;strokeWidth=1;align=center;outlineConnect=0;dashed=0;outlineConnect=0;shape=mxgraph.aws3d.flatEdge2;strokeColor=none;fillColor=#F4B934;aspect=fixed;shadow=0;sketch=0;fontSize=11;rotation=-220;" parent="1" vertex="1"><mxGeometry x="352.15" y="1923.01" width="64.96" height="37" as="geometry"/></mxCell><mxCell id="bl-t90TqCPlwm7aX9RKi-12" value="" style="verticalLabelPosition=bottom;html=1;verticalAlign=top;strokeWidth=1;align=center;outlineConnect=0;dashed=0;outlineConnect=0;shape=mxgraph.aws3d.flatEdge2;strokeColor=none;fillColor=#F4B934;aspect=fixed;shadow=0;sketch=0;fontSize=11;rotation=-45;" parent="1" vertex="1"><mxGeometry x="356.9" y="1910" width="63.2" height="36" as="geometry"/></mxCell><mxCell id="bl-t90TqCPlwm7aX9RKi-13" value="" style="verticalLabelPosition=bottom;html=1;verticalAlign=top;strokeWidth=1;align=center;outlineConnect=0;dashed=0;outlineConnect=0;shape=mxgraph.aws3d.application_server;fillColor=#ECECEC;strokeColor=#5E5E5E;aspect=fixed;shadow=0;sketch=0;fontSize=11;" parent="1" vertex="1"><mxGeometry x="299" y="1638" width="69.44" height="70" as="geometry"/></mxCell><mxCell id="bl-t90TqCPlwm7aX9RKi-14" value="" style="verticalLabelPosition=bottom;html=1;verticalAlign=top;strokeWidth=1;align=center;outlineConnect=0;dashed=0;outlineConnect=0;shape=mxgraph.aws3d.application_server;fillColor=#ECECEC;strokeColor=#5E5E5E;aspect=fixed;shadow=0;sketch=0;fontSize=11;" parent="1" vertex="1"><mxGeometry x="602.4" y="1856" width="69.44" height="70" as="geometry"/></mxCell><mxCell id="bl-t90TqCPlwm7aX9RKi-15" value="" style="verticalLabelPosition=bottom;html=1;verticalAlign=top;strokeWidth=1;align=center;outlineConnect=0;dashed=0;outlineConnect=0;shape=mxgraph.aws3d.application_server;fillColor=#ECECEC;strokeColor=#5E5E5E;aspect=fixed;shadow=0;sketch=0;fontSize=11;" parent="1" vertex="1"><mxGeometry x="543.88" y="1610" width="69.44" height="70" as="geometry"/></mxCell><mxCell id="bl-t90TqCPlwm7aX9RKi-16" value="AuthService" style="text;html=1;strokeColor=none;fillColor=none;align=center;verticalAlign=middle;whiteSpace=wrap;rounded=0;" parent="1" vertex="1"><mxGeometry x="288.08" y="1602" width="91.28" height="48" as="geometry"/></mxCell><mxCell id="bl-t90TqCPlwm7aX9RKi-17" value="MailService(websocket)" style="text;html=1;strokeColor=none;fillColor=none;align=center;verticalAlign=middle;whiteSpace=wrap;rounded=0;" parent="1" vertex="1"><mxGeometry x="611.36" y="1917" width="91.28" height="48" as="geometry"/></mxCell><mxCell id="bl-t90TqCPlwm7aX9RKi-18" value="" style="edgeStyle=isometricEdgeStyle;endArrow=none;html=1;elbow=vertical;rounded=0;fontSize=11;" parent="1" source="bl-t90TqCPlwm7aX9RKi-9" target="bl-t90TqCPlwm7aX9RKi-2" edge="1"><mxGeometry x="-0.0124" y="14" width="50" height="100" relative="1" as="geometry"><mxPoint x="486" y="1917" as="sourcePoint"/><mxPoint x="801" y="1746" as="targetPoint"/><Array as="points"><mxPoint x="882" y="1863"/><mxPoint x="720" y="1890"/><mxPoint x="684" y="1872"/></Array><mxPoint as="offset"/></mxGeometry></mxCell><mxCell id="bl-t90TqCPlwm7aX9RKi-19" value="SeachService" style="text;html=1;strokeColor=none;fillColor=none;align=center;verticalAlign=middle;whiteSpace=wrap;rounded=0;" parent="1" vertex="1"><mxGeometry x="538.28" y="1669" width="91.28" height="48" as="geometry"/></mxCell><mxCell id="bl-t90TqCPlwm7aX9RKi-20" value="" style="verticalLabelPosition=bottom;html=1;verticalAlign=top;strokeWidth=1;align=center;outlineConnect=0;dashed=0;outlineConnect=0;shape=mxgraph.aws3d.application_server;fillColor=#ECECEC;strokeColor=#5E5E5E;aspect=fixed;shadow=0;sketch=0;fontSize=11;" parent="1" vertex="1"><mxGeometry x="630" y="1669" width="69.44" height="70" as="geometry"/></mxCell><mxCell id="bl-t90TqCPlwm7aX9RKi-22" value="" style="edgeStyle=isometricEdgeStyle;endArrow=none;html=1;elbow=vertical;rounded=0;fontSize=11;" parent="1" source="bl-t90TqCPlwm7aX9RKi-9" target="bl-t90TqCPlwm7aX9RKi-14" edge="1"><mxGeometry x="0.0044" y="4" width="50" height="100" relative="1" as="geometry"><mxPoint x="507.8" y="1881" as="sourcePoint"/><mxPoint x="557.8" y="1781" as="targetPoint"/><Array as="points"><mxPoint x="477" y="1845"/></Array><mxPoint y="-1" as="offset"/></mxGeometry></mxCell><mxCell id="bl-t90TqCPlwm7aX9RKi-23" value="secure connection" style="edgeStyle=isometricEdgeStyle;endArrow=none;html=1;rounded=0;fontSize=11;startArrow=none;" parent="1" source="bl-t90TqCPlwm7aX9RKi-36" target="bl-t90TqCPlwm7aX9RKi-13" edge="1"><mxGeometry x="0.1963" y="6" width="50" height="100" relative="1" as="geometry"><mxPoint x="405" y="1782" as="sourcePoint"/><mxPoint x="374" y="1746" as="targetPoint"/><Array as="points"><mxPoint x="324" y="1800"/><mxPoint x="342" y="1719"/></Array><mxPoint as="offset"/></mxGeometry></mxCell><mxCell id="bl-t90TqCPlwm7aX9RKi-28" value="" style="verticalLabelPosition=bottom;html=1;verticalAlign=top;strokeWidth=1;align=center;outlineConnect=0;dashed=0;outlineConnect=0;shape=mxgraph.aws3d.dashedEdgeDouble2;strokeColor=#2D6195;aspect=fixed;shadow=0;sketch=0;fontSize=11;" parent="1" vertex="1"><mxGeometry x="369" y="1683.57" width="93.8" height="53.43" as="geometry"/></mxCell><mxCell id="bl-t90TqCPlwm7aX9RKi-29" value="isometric edge" style="edgeStyle=isometricEdgeStyle;endArrow=none;html=1;rounded=0;fontSize=11;" parent="1" target="bl-t90TqCPlwm7aX9RKi-25" edge="1"><mxGeometry width="50" height="100" relative="1" as="geometry"><mxPoint x="450" y="1845" as="sourcePoint"/><mxPoint x="477" y="1782" as="targetPoint"/></mxGeometry></mxCell><mxCell id="bl-t90TqCPlwm7aX9RKi-30" value="" style="verticalLabelPosition=bottom;html=1;verticalAlign=top;strokeWidth=1;align=center;outlineConnect=0;dashed=0;outlineConnect=0;shape=mxgraph.aws3d.dashedEdge2;strokeColor=#2D6195;aspect=fixed;shadow=0;sketch=0;fontSize=11;gradientColor=none;rotation=25;" parent="1" vertex="1"><mxGeometry x="538.93" y="1703.09" width="79.01" height="45" as="geometry"/></mxCell><mxCell id="bl-t90TqCPlwm7aX9RKi-35" value="" style="edgeStyle=isometricEdgeStyle;endArrow=none;html=1;rounded=0;fontSize=11;exitX=0.333;exitY=1.014;exitDx=0;exitDy=0;exitPerimeter=0;" parent="1" source="bl-t90TqCPlwm7aX9RKi-10" target="bl-t90TqCPlwm7aX9RKi-36" edge="1"><mxGeometry width="50" height="100" relative="1" as="geometry"><mxPoint x="405" y="1782" as="sourcePoint"/><mxPoint x="299" y="1693.0456013462638" as="targetPoint"/><Array as="points"><mxPoint x="324" y="1800"/><mxPoint x="351" y="1818"/><mxPoint x="306" y="1791"/><mxPoint x="261" y="1764"/></Array></mxGeometry></mxCell><mxCell id="bl-t90TqCPlwm7aX9RKi-36" value="" style="verticalLabelPosition=bottom;html=1;verticalAlign=top;strokeWidth=1;align=center;outlineConnect=0;dashed=0;outlineConnect=0;shape=mxgraph.aws3d.secureConnection;fillColor=#000000;strokeColor=#ffffff;aspect=fixed;shadow=0;sketch=0;fontSize=11;" parent="1" vertex="1"><mxGeometry x="258.74" y="1765.5" width="29.34" height="17.5" as="geometry"/></mxCell><mxCell id="bl-t90TqCPlwm7aX9RKi-37" value="" style="edgeStyle=isometricEdgeStyle;endArrow=none;html=1;rounded=0;fontSize=11;startArrow=none;" parent="1" source="bl-t90TqCPlwm7aX9RKi-13" target="bl-t90TqCPlwm7aX9RKi-36" edge="1"><mxGeometry width="50" height="100" relative="1" as="geometry"><mxPoint x="299" y="1693.0456013462638" as="sourcePoint"/><mxPoint x="299" y="1693.0456013462638" as="targetPoint"/><Array as="points"><mxPoint x="261" y="1764"/></Array></mxGeometry></mxCell><mxCell id="bl-t90TqCPlwm7aX9RKi-38" value="" style="edgeStyle=isometricEdgeStyle;endArrow=none;html=1;elbow=vertical;rounded=0;fontSize=11;" parent="1" target="bl-t90TqCPlwm7aX9RKi-2" edge="1"><mxGeometry width="50" height="100" relative="1" as="geometry"><mxPoint x="318.8800000000001" y="1648" as="sourcePoint"/><mxPoint x="368.88" y="1548" as="targetPoint"/><Array as="points"><mxPoint x="486" y="1512"/></Array></mxGeometry></mxCell><mxCell id="JSsXWTNlXfGRfDBwjuQ--1" value="" style="group" parent="1" vertex="1" connectable="0"><mxGeometry x="410" y="1570.0000000000002" width="296.5099999999999" height="234.1399999999998" as="geometry"/></mxCell><mxCell id="JSsXWTNlXfGRfDBwjuQ--2" value="" style="verticalLabelPosition=bottom;html=1;verticalAlign=top;strokeWidth=1;align=center;outlineConnect=0;dashed=0;outlineConnect=0;shape=mxgraph.aws3d.application_server;fillColor=#ECECEC;strokeColor=#5E5E5E;aspect=fixed;shadow=0;sketch=0;fontSize=11;" parent="JSsXWTNlXfGRfDBwjuQ--1" vertex="1"><mxGeometry x="16.52000000000004" width="69.44" height="70" as="geometry"/></mxCell><mxCell id="JSsXWTNlXfGRfDBwjuQ--3" value="MessageService" style="text;html=1;strokeColor=none;fillColor=none;align=center;verticalAlign=middle;whiteSpace=wrap;rounded=0;" parent="JSsXWTNlXfGRfDBwjuQ--1" vertex="1"><mxGeometry y="58" width="91.28" height="48" as="geometry"/></mxCell><mxCell id="bl-t90TqCPlwm7aX9RKi-24" value="" style="group" parent="JSsXWTNlXfGRfDBwjuQ--1" vertex="1" connectable="0"><mxGeometry x="40" y="99.99999999999977" width="256.5099999999999" height="134.14000000000001" as="geometry"/></mxCell><mxCell id="bl-t90TqCPlwm7aX9RKi-25" value="" style="verticalLabelPosition=bottom;html=1;verticalAlign=top;strokeWidth=1;align=center;outlineConnect=0;dashed=0;outlineConnect=0;shape=mxgraph.aws3d.application_server;fillColor=#ECECEC;strokeColor=#5E5E5E;aspect=fixed;shadow=0;sketch=0;fontSize=11;" parent="bl-t90TqCPlwm7aX9RKi-24" vertex="1"><mxGeometry x="9.839999999999975" y="39" width="69.44" height="70" as="geometry"/></mxCell><mxCell id="bl-t90TqCPlwm7aX9RKi-27" value="" style="verticalLabelPosition=bottom;html=1;verticalAlign=top;strokeWidth=1;align=center;outlineConnect=0;dashed=0;outlineConnect=0;shape=mxgraph.aws3d.dashedEdge2;strokeColor=#2D6195;aspect=fixed;shadow=0;sketch=0;fontSize=11;gradientColor=none;rotation=0;" parent="bl-t90TqCPlwm7aX9RKi-24" vertex="1"><mxGeometry x="47.68" width="68.47" height="39" as="geometry"/></mxCell><mxCell id="bl-t90TqCPlwm7aX9RKi-34" value="" style="verticalLabelPosition=bottom;html=1;verticalAlign=top;strokeWidth=1;align=center;outlineConnect=0;dashed=0;outlineConnect=0;shape=mxgraph.aws3d.dashedEdgeDouble2;strokeColor=#2D6195;aspect=fixed;shadow=0;sketch=0;fontSize=11;gradientColor=none;rotation=-140;" parent="bl-t90TqCPlwm7aX9RKi-24" vertex="1"><mxGeometry x="-19" y="-14" width="77.23" height="44" as="geometry"/></mxCell><mxCell id="JSsXWTNlXfGRfDBwjuQ--11" value="" style="verticalLabelPosition=bottom;html=1;verticalAlign=top;strokeWidth=1;align=center;outlineConnect=0;dashed=0;outlineConnect=0;shape=mxgraph.aws3d.dashedEdgeDouble2;strokeColor=#2D6195;aspect=fixed;shadow=0;sketch=0;fontSize=11;gradientColor=none;rotation=-210;" parent="bl-t90TqCPlwm7aX9RKi-24" vertex="1"><mxGeometry x="90" y="39.269999999999996" width="166.51" height="94.87" as="geometry"/></mxCell><mxCell id="bl-t90TqCPlwm7aX9RKi-21" value="Video/FotoService" style="text;html=1;strokeColor=none;fillColor=none;align=center;verticalAlign=middle;whiteSpace=wrap;rounded=0;" parent="bl-t90TqCPlwm7aX9RKi-24" vertex="1"><mxGeometry x="165.2299999999999" y="50" width="91.28" height="48" as="geometry"/></mxCell><mxCell id="JSsXWTNlXfGRfDBwjuQ--8" value="" style="verticalLabelPosition=bottom;html=1;verticalAlign=top;strokeWidth=1;align=center;outlineConnect=0;dashed=0;outlineConnect=0;shape=mxgraph.aws3d.application_server;fillColor=#ECECEC;strokeColor=#5E5E5E;aspect=fixed;shadow=0;sketch=0;fontSize=11;" parent="1" vertex="1"><mxGeometry x="713.56" y="1714.03" width="69.44" height="70" as="geometry"/></mxCell><mxCell id="JSsXWTNlXfGRfDBwjuQ--9" value="LikesService" style="text;html=1;strokeColor=none;fillColor=none;align=center;verticalAlign=middle;whiteSpace=wrap;rounded=0;" parent="1" vertex="1"><mxGeometry x="702.6399999999999" y="1770" width="91.28" height="48" as="geometry"/></mxCell><mxCell id="bl-t90TqCPlwm7aX9RKi-26" value="UserService" style="text;html=1;strokeColor=none;fillColor=none;align=center;verticalAlign=middle;whiteSpace=wrap;rounded=0;" parent="1" vertex="1"><mxGeometry x="450" y="1760" width="91.28" height="48" as="geometry"/></mxCell><mxCell id="JSsXWTNlXfGRfDBwjuQ--12" value="" style="verticalLabelPosition=bottom;html=1;verticalAlign=top;strokeWidth=1;align=center;outlineConnect=0;dashed=0;outlineConnect=0;shape=mxgraph.aws3d.dashedEdgeDouble2;strokeColor=#2D6195;aspect=fixed;shadow=0;sketch=0;fontSize=11;gradientColor=none;rotation=-75;" parent="1" vertex="1"><mxGeometry x="634.04" y="1788.15" width="101.8" height="58" as="geometry"/></mxCell><mxCell id="TzJuqHu7ho1rDmZDQmOb-2" value="Client device with Telegram" style="rounded=0;whiteSpace=wrap;html=1;" parent="1" vertex="1"><mxGeometry x="160" y="2150" width="120" height="50" as="geometry"/></mxCell><mxCell id="TzJuqHu7ho1rDmZDQmOb-3" value="" style="verticalLabelPosition=bottom;html=1;verticalAlign=top;strokeWidth=1;align=center;outlineConnect=0;dashed=0;outlineConnect=0;shape=mxgraph.aws3d.arrowNE;fillColor=#000000;aspect=fixed;fontSize=11;" parent="1" vertex="1"><mxGeometry x="226.6" y="2100" width="41.5" height="23.72" as="geometry"/></mxCell><mxCell id="TzJuqHu7ho1rDmZDQmOb-4" value="" style="verticalLabelPosition=bottom;html=1;verticalAlign=top;strokeWidth=1;align=center;outlineConnect=0;dashed=0;outlineConnect=0;shape=mxgraph.aws3d.arrowSW;fillColor=#000000;aspect=fixed;fontSize=11;shadow=0;sketch=0;" parent="1" vertex="1"><mxGeometry x="258.74" y="2110.99" width="43.47" height="24.85" as="geometry"/></mxCell></root></mxGraphModel></diagram><diagram id="x7OuzBz9qQSVcl5aYoL3" name="Page-2"><mxGraphModel dx="1900" dy="1892" grid="1" gridSize="10" guides="1" tooltips="1" connect="1" arrows="1" fold="1" page="1" pageScale="1" pageWidth="827" pageHeight="1169" math="0" shadow="0"><root><mxCell id="0"/><mxCell id="1" parent="0"/><mxCell id="Jlkrtkk8857nLXIoRhml-1" value="&lt;b&gt;API&lt;/b&gt;" style="rounded=1;whiteSpace=wrap;html=1;" parent="1" vertex="1"><mxGeometry x="140" y="10" width="120" height="60" as="geometry"/></mxCell><mxCell id="Jlkrtkk8857nLXIoRhml-2" value="" style="endArrow=classic;html=1;rounded=0;fontSize=13;exitX=0.5;exitY=1;exitDx=0;exitDy=0;entryX=0.365;entryY=0;entryDx=0;entryDy=0;entryPerimeter=0;" parent="1" source="Jlkrtkk8857nLXIoRhml-1" edge="1"><mxGeometry width="50" height="50" relative="1" as="geometry"><mxPoint x="390" y="420" as="sourcePoint"/><mxPoint x="227.19999999999982" y="140" as="targetPoint"/><Array as="points"/></mxGeometry></mxCell><mxCell id="Jlkrtkk8857nLXIoRhml-3" value="" style="endArrow=classic;html=1;rounded=0;fontSize=13;exitX=0.413;exitY=1;exitDx=0;exitDy=0;exitPerimeter=0;" parent="1" target="Jlkrtkk8857nLXIoRhml-36" edge="1"><mxGeometry width="50" height="50" relative="1" as="geometry"><mxPoint x="288.6399999999999" y="410" as="sourcePoint"/><mxPoint x="90" y="510" as="targetPoint"/><Array as="points"/></mxGeometry></mxCell><mxCell id="Jlkrtkk8857nLXIoRhml-4" value="" style="endArrow=classic;html=1;rounded=0;fontSize=13;" parent="1" source="Jlkrtkk8857nLXIoRhml-27" target="Jlkrtkk8857nLXIoRhml-15" edge="1"><mxGeometry width="50" height="50" relative="1" as="geometry"><mxPoint x="480" y="760" as="sourcePoint"/><mxPoint x="483.24" y="817" as="targetPoint"/><Array as="points"/></mxGeometry></mxCell><mxCell id="Jlkrtkk8857nLXIoRhml-5" value="UserResource" style="swimlane;fontStyle=1;align=center;verticalAlign=top;childLayout=stackLayout;horizontal=1;startSize=26;horizontalStack=0;resizeParent=1;resizeParentMax=0;resizeLast=0;collapsible=1;marginBottom=0;fontSize=14;" parent="1" vertex="1"><mxGeometry x="-100" y="190" width="220" height="120" as="geometry"><mxRectangle x="-100" y="190" width="130" height="26" as="alternateBounds"/></mxGeometry></mxCell><mxCell id="Jlkrtkk8857nLXIoRhml-6" value="- userService: UserService" style="text;strokeColor=none;fillColor=none;align=left;verticalAlign=top;spacingLeft=4;spacingRight=4;overflow=hidden;rotatable=0;points=[[0,0.5],[1,0.5]];portConstraint=eastwest;fontSize=14;" parent="Jlkrtkk8857nLXIoRhml-5" vertex="1"><mxGeometry y="26" width="220" height="26" as="geometry"/></mxCell><mxCell id="Jlkrtkk8857nLXIoRhml-7" value="" style="line;strokeWidth=1;fillColor=none;align=left;verticalAlign=middle;spacingTop=-1;spacingLeft=3;spacingRight=3;rotatable=0;labelPosition=right;points=[];portConstraint=eastwest;fontSize=14;" parent="Jlkrtkk8857nLXIoRhml-5" vertex="1"><mxGeometry y="52" width="220" height="8" as="geometry"/></mxCell><mxCell id="Jlkrtkk8857nLXIoRhml-8" value="+ getAllUsers(): List&lt;UserDto&gt;&#10;+ currentUser(principal: Principal):&#10;UserDto&#10;&#10;" style="text;strokeColor=none;fillColor=none;align=left;verticalAlign=top;spacingLeft=4;spacingRight=4;overflow=hidden;rotatable=0;points=[[0,0.5],[1,0.5]];portConstraint=eastwest;fontSize=14;" parent="Jlkrtkk8857nLXIoRhml-5" vertex="1"><mxGeometry y="60" width="220" height="60" as="geometry"/></mxCell><mxCell id="Jlkrtkk8857nLXIoRhml-9" value="MultimediaController" style="swimlane;fontStyle=1;align=center;verticalAlign=top;childLayout=stackLayout;horizontal=1;startSize=26;horizontalStack=0;resizeParent=1;resizeParentMax=0;resizeLast=0;collapsible=1;marginBottom=0;fontSize=14;" parent="1" vertex="1"><mxGeometry x="170" y="190" width="180" height="160" as="geometry"/></mxCell><mxCell id="Jlkrtkk8857nLXIoRhml-10" value="- logger: Logger&#10;- multimediaService:&#10;MultimediaService&#10;" style="text;strokeColor=none;fillColor=none;align=left;verticalAlign=top;spacingLeft=4;spacingRight=4;overflow=hidden;rotatable=0;points=[[0,0.5],[1,0.5]];portConstraint=eastwest;fontSize=14;" parent="Jlkrtkk8857nLXIoRhml-9" vertex="1"><mxGeometry y="26" width="180" height="64" as="geometry"/></mxCell><mxCell id="Jlkrtkk8857nLXIoRhml-11" value="" style="line;strokeWidth=1;fillColor=none;align=left;verticalAlign=middle;spacingTop=-1;spacingLeft=3;spacingRight=3;rotatable=0;labelPosition=right;points=[];portConstraint=eastwest;fontSize=14;" parent="Jlkrtkk8857nLXIoRhml-9" vertex="1"><mxGeometry y="90" width="180" height="8" as="geometry"/></mxCell><mxCell id="Jlkrtkk8857nLXIoRhml-12" value="+ downloadMedia(id: long): &#10;ResponseEntity&lt;byte[]&gt;&#10;+ deleteMedia(id: Long)&#10;" style="text;strokeColor=none;fillColor=none;align=left;verticalAlign=top;spacingLeft=4;spacingRight=4;overflow=hidden;rotatable=0;points=[[0,0.5],[1,0.5]];portConstraint=eastwest;fontSize=14;" parent="Jlkrtkk8857nLXIoRhml-9" vertex="1"><mxGeometry y="98" width="180" height="62" as="geometry"/></mxCell><mxCell id="Jlkrtkk8857nLXIoRhml-13" value="" style="endArrow=classic;html=1;rounded=0;fontSize=14;entryX=0.75;entryY=0;entryDx=0;entryDy=0;" parent="1" target="Jlkrtkk8857nLXIoRhml-1" edge="1"><mxGeometry width="50" height="50" relative="1" as="geometry"><mxPoint x="233.5" y="-60" as="sourcePoint"/><mxPoint x="500" y="10" as="targetPoint"/></mxGeometry></mxCell><mxCell id="Jlkrtkk8857nLXIoRhml-14" value="" style="group" parent="1" vertex="1" connectable="0"><mxGeometry x="-360" y="1650" width="1080" height="220" as="geometry"/></mxCell><mxCell id="Jlkrtkk8857nLXIoRhml-15" value="&lt;div style=&quot;font-size: 14px&quot;&gt;&lt;font style=&quot;font-size: 14px&quot;&gt;&lt;b&gt;Database&lt;/b&gt;&lt;/font&gt;&lt;/div&gt;" style="shape=cylinder3;whiteSpace=wrap;html=1;boundedLbl=1;backgroundOutline=1;size=15;fontSize=13;align=left;" parent="Jlkrtkk8857nLXIoRhml-14" vertex="1"><mxGeometry width="1080" height="220" as="geometry"/></mxCell><mxCell id="Jlkrtkk8857nLXIoRhml-16" value="User" style="swimlane;fontStyle=1;align=center;verticalAlign=top;childLayout=stackLayout;horizontal=1;startSize=26;horizontalStack=0;resizeParent=1;resizeParentMax=0;resizeLast=0;collapsible=1;marginBottom=0;fontSize=14;" parent="Jlkrtkk8857nLXIoRhml-14" vertex="1"><mxGeometry x="100" y="60" width="320" height="128" as="geometry"/></mxCell><mxCell id="Jlkrtkk8857nLXIoRhml-17" value="- id: Long&#10;- username: String&#10;- password: String&#10;- email: String&#10;- mediaFile: List&lt;Multimedia&gt;&#10;&#10;" style="text;strokeColor=none;fillColor=none;align=left;verticalAlign=top;spacingLeft=4;spacingRight=4;overflow=hidden;rotatable=0;points=[[0,0.5],[1,0.5]];portConstraint=eastwest;fontSize=14;" parent="Jlkrtkk8857nLXIoRhml-16" vertex="1"><mxGeometry y="26" width="320" height="94" as="geometry"/></mxCell><mxCell id="Jlkrtkk8857nLXIoRhml-18" value="" style="line;strokeWidth=1;fillColor=none;align=left;verticalAlign=middle;spacingTop=-1;spacingLeft=3;spacingRight=3;rotatable=0;labelPosition=right;points=[];portConstraint=eastwest;fontSize=14;" parent="Jlkrtkk8857nLXIoRhml-16" vertex="1"><mxGeometry y="120" width="320" height="8" as="geometry"/></mxCell><mxCell id="Jlkrtkk8857nLXIoRhml-19" value="Multimedia" style="swimlane;fontStyle=1;align=center;verticalAlign=top;childLayout=stackLayout;horizontal=1;startSize=26;horizontalStack=0;resizeParent=1;resizeParentMax=0;resizeLast=0;collapsible=1;marginBottom=0;fontSize=14;" parent="Jlkrtkk8857nLXIoRhml-14" vertex="1"><mxGeometry x="630" y="60" width="340" height="128" as="geometry"/></mxCell><mxCell id="Jlkrtkk8857nLXIoRhml-20" value="- id: Long&#10;- fileName: String&#10;- contentType: String&#10;- storageFileName: String&#10;- user: User&#10;&#10;&#10;&#10;" style="text;strokeColor=none;fillColor=none;align=left;verticalAlign=top;spacingLeft=4;spacingRight=4;overflow=hidden;rotatable=0;points=[[0,0.5],[1,0.5]];portConstraint=eastwest;fontSize=14;" parent="Jlkrtkk8857nLXIoRhml-19" vertex="1"><mxGeometry y="26" width="340" height="94" as="geometry"/></mxCell><mxCell id="Jlkrtkk8857nLXIoRhml-21" value="" style="line;strokeWidth=1;fillColor=none;align=left;verticalAlign=middle;spacingTop=-1;spacingLeft=3;spacingRight=3;rotatable=0;labelPosition=right;points=[];portConstraint=eastwest;fontSize=14;" parent="Jlkrtkk8857nLXIoRhml-19" vertex="1"><mxGeometry y="120" width="340" height="8" as="geometry"/></mxCell><mxCell id="Jlkrtkk8857nLXIoRhml-22" value="" style="endArrow=diamondThin;endFill=1;endSize=24;html=1;rounded=0;fontSize=14;" parent="Jlkrtkk8857nLXIoRhml-14" source="Jlkrtkk8857nLXIoRhml-16" target="Jlkrtkk8857nLXIoRhml-19" edge="1"><mxGeometry width="160" relative="1" as="geometry"><mxPoint x="480" y="960" as="sourcePoint"/><mxPoint x="730" y="960" as="targetPoint"/></mxGeometry></mxCell><mxCell id="Jlkrtkk8857nLXIoRhml-23" value="1..*" style="edgeLabel;html=1;align=center;verticalAlign=middle;resizable=0;points=[];fontSize=14;" parent="Jlkrtkk8857nLXIoRhml-22" vertex="1" connectable="0"><mxGeometry x="-0.5133" relative="1" as="geometry"><mxPoint as="offset"/></mxGeometry></mxCell><mxCell id="Jlkrtkk8857nLXIoRhml-24" value="1" style="edgeLabel;html=1;align=center;verticalAlign=middle;resizable=0;points=[];fontSize=14;" parent="Jlkrtkk8857nLXIoRhml-22" vertex="1" connectable="0"><mxGeometry x="0.6757" relative="1" as="geometry"><mxPoint as="offset"/></mxGeometry></mxCell><mxCell id="Jlkrtkk8857nLXIoRhml-25" value="" style="group" parent="1" vertex="1" connectable="0"><mxGeometry x="-360" y="750" width="1290" height="810" as="geometry"/></mxCell><mxCell id="Jlkrtkk8857nLXIoRhml-26" value="" style="group" parent="Jlkrtkk8857nLXIoRhml-25" vertex="1" connectable="0"><mxGeometry x="80" y="660" width="1080" height="150" as="geometry"/></mxCell><mxCell id="Jlkrtkk8857nLXIoRhml-27" value="&lt;div style=&quot;font-size: 14px&quot; align=&quot;left&quot;&gt;&lt;font style=&quot;font-size: 14px&quot;&gt;&lt;b&gt;Re&lt;span class=&quot;VIiyi&quot; lang=&quot;en&quot;&gt;&lt;span class=&quot;JLqJ4b ChMk0b C1N51c&quot;&gt;&lt;span class=&quot;Q4iAWc&quot;&gt;pository&lt;/span&gt;&lt;/span&gt;&lt;/span&gt;&lt;/b&gt;&lt;/font&gt;&lt;/div&gt;" style="rounded=0;whiteSpace=wrap;html=1;fontSize=13;align=left;" parent="Jlkrtkk8857nLXIoRhml-26" vertex="1"><mxGeometry width="1080" height="150" as="geometry"/></mxCell><mxCell id="Jlkrtkk8857nLXIoRhml-28" value="&lt;div&gt;«interface»&lt;b&gt;&lt;br&gt;&lt;/b&gt;&lt;/div&gt;&lt;div&gt;&lt;b&gt;User&lt;/b&gt;&lt;font style=&quot;font-size: 14px&quot;&gt;&lt;b&gt;Re&lt;span class=&quot;VIiyi&quot; lang=&quot;en&quot;&gt;&lt;span class=&quot;JLqJ4b ChMk0b C1N51c&quot;&gt;&lt;span class=&quot;Q4iAWc&quot;&gt;pository&lt;/span&gt;&lt;/span&gt;&lt;/span&gt;&lt;/b&gt;&lt;/font&gt;&lt;/div&gt;" style="html=1;fontSize=14;" parent="Jlkrtkk8857nLXIoRhml-26" vertex="1"><mxGeometry x="405" y="50" width="140" height="50" as="geometry"/></mxCell><mxCell id="Jlkrtkk8857nLXIoRhml-29" value="&lt;div&gt;«interface»&lt;b&gt;&lt;br&gt;&lt;/b&gt;&lt;/div&gt;&lt;div&gt;&lt;b&gt;Multimedia&lt;/b&gt;&lt;font style=&quot;font-size: 14px&quot;&gt;&lt;b&gt;Re&lt;span class=&quot;VIiyi&quot; lang=&quot;en&quot;&gt;&lt;span class=&quot;JLqJ4b ChMk0b C1N51c&quot;&gt;&lt;span class=&quot;Q4iAWc&quot;&gt;pository&lt;/span&gt;&lt;/span&gt;&lt;/span&gt;&lt;/b&gt;&lt;/font&gt;&lt;/div&gt;" style="html=1;fontSize=14;" parent="Jlkrtkk8857nLXIoRhml-26" vertex="1"><mxGeometry x="580" y="50" width="160" height="50" as="geometry"/></mxCell><mxCell id="Jlkrtkk8857nLXIoRhml-30" value="" style="endArrow=block;endSize=16;endFill=0;html=1;rounded=0;fontSize=14;entryX=1;entryY=0.5;entryDx=0;entryDy=0;" parent="Jlkrtkk8857nLXIoRhml-26" source="Jlkrtkk8857nLXIoRhml-28" target="Jlkrtkk8857nLXIoRhml-32" edge="1"><mxGeometry x="0.8639" y="60" width="160" relative="1" as="geometry"><mxPoint x="320" y="-360" as="sourcePoint"/><mxPoint x="280" y="-430" as="targetPoint"/><mxPoint as="offset"/></mxGeometry></mxCell><mxCell id="Jlkrtkk8857nLXIoRhml-31" value="" style="endArrow=block;endSize=16;endFill=0;html=1;rounded=0;fontSize=14;" parent="Jlkrtkk8857nLXIoRhml-26" source="Jlkrtkk8857nLXIoRhml-29" target="Jlkrtkk8857nLXIoRhml-33" edge="1"><mxGeometry x="-0.1779" y="18" width="160" relative="1" as="geometry"><mxPoint x="816.8338554216867" y="-400" as="sourcePoint"/><mxPoint x="940" y="-390" as="targetPoint"/><Array as="points"><mxPoint x="760" y="70"/></Array><mxPoint as="offset"/></mxGeometry></mxCell><mxCell id="Jlkrtkk8857nLXIoRhml-32" value="&lt;div&gt;«interface»&lt;/div&gt;&lt;div&gt;&lt;b&gt;J&lt;/b&gt;&lt;font style=&quot;font-size: 14px&quot;&gt;&lt;b&gt;&lt;span class=&quot;VIiyi&quot; lang=&quot;en&quot;&gt;&lt;span class=&quot;JLqJ4b ChMk0b C1N51c&quot;&gt;&lt;span class=&quot;Q4iAWc&quot;&gt;pa&lt;/span&gt;&lt;/span&gt;&lt;/span&gt;&lt;/b&gt;&lt;/font&gt;&lt;font style=&quot;font-size: 14px&quot;&gt;&lt;b&gt;Re&lt;span class=&quot;VIiyi&quot; lang=&quot;en&quot;&gt;&lt;span class=&quot;JLqJ4b ChMk0b C1N51c&quot;&gt;&lt;span class=&quot;Q4iAWc&quot;&gt;pository&amp;lt;User, Long&amp;gt;&lt;/span&gt;&lt;/span&gt;&lt;/span&gt;&lt;/b&gt;&lt;/font&gt;&lt;/div&gt;" style="html=1;fontSize=14;" parent="Jlkrtkk8857nLXIoRhml-26" vertex="1"><mxGeometry x="130" y="50" width="200" height="50" as="geometry"/></mxCell><mxCell id="Jlkrtkk8857nLXIoRhml-33" value="«interface»&lt;br&gt;&lt;div&gt;&lt;b&gt;J&lt;/b&gt;&lt;font style=&quot;font-size: 14px&quot;&gt;&lt;b&gt;&lt;span class=&quot;VIiyi&quot; lang=&quot;en&quot;&gt;&lt;span class=&quot;JLqJ4b ChMk0b C1N51c&quot;&gt;&lt;span class=&quot;Q4iAWc&quot;&gt;pa&lt;/span&gt;&lt;/span&gt;&lt;/span&gt;&lt;/b&gt;&lt;/font&gt;&lt;font style=&quot;font-size: 14px&quot;&gt;&lt;b&gt;Re&lt;span class=&quot;VIiyi&quot; lang=&quot;en&quot;&gt;&lt;span class=&quot;JLqJ4b ChMk0b C1N51c&quot;&gt;&lt;span class=&quot;Q4iAWc&quot;&gt;pository&amp;lt;Multimedia, Long&amp;gt;&lt;/span&gt;&lt;/span&gt;&lt;/span&gt;&lt;/b&gt;&lt;/font&gt;&lt;/div&gt;" style="html=1;fontSize=14;" parent="Jlkrtkk8857nLXIoRhml-26" vertex="1"><mxGeometry x="800" y="50" width="250" height="50" as="geometry"/></mxCell><mxCell id="Jlkrtkk8857nLXIoRhml-34" value="" style="endArrow=classic;html=1;rounded=0;fontSize=13;entryX=0.462;entryY=0;entryDx=0;entryDy=0;entryPerimeter=0;" parent="Jlkrtkk8857nLXIoRhml-25" source="Jlkrtkk8857nLXIoRhml-36" target="Jlkrtkk8857nLXIoRhml-27" edge="1"><mxGeometry width="50" height="50" relative="1" as="geometry"><mxPoint x="614.5" y="-100" as="sourcePoint"/><mxPoint x="614.5" y="-60" as="targetPoint"/><Array as="points"/></mxGeometry></mxCell><mxCell id="Jlkrtkk8857nLXIoRhml-35" value="" style="group" parent="Jlkrtkk8857nLXIoRhml-25" vertex="1" connectable="0"><mxGeometry y="100" width="1290" height="490" as="geometry"/></mxCell><mxCell id="Jlkrtkk8857nLXIoRhml-36" value="&lt;div align=&quot;left&quot;&gt;&lt;font style=&quot;font-size: 14px&quot;&gt;&lt;b&gt;Service&lt;/b&gt;&lt;/font&gt;&lt;/div&gt;" style="rounded=0;whiteSpace=wrap;html=1;fontSize=13;align=left;" parent="Jlkrtkk8857nLXIoRhml-35" vertex="1"><mxGeometry width="1290" height="490" as="geometry"/></mxCell><mxCell id="Jlkrtkk8857nLXIoRhml-37" value="AuthService" style="swimlane;fontStyle=1;align=center;verticalAlign=top;childLayout=stackLayout;horizontal=1;startSize=26;horizontalStack=0;resizeParent=1;resizeParentMax=0;resizeLast=0;collapsible=1;marginBottom=0;fontSize=14;" parent="Jlkrtkk8857nLXIoRhml-35" vertex="1"><mxGeometry x="654" y="36.94999999999999" width="276" height="121.28999999999999" as="geometry"/></mxCell><mxCell id="Jlkrtkk8857nLXIoRhml-38" value="- userRepository: &#10;UserRepository" style="text;strokeColor=none;fillColor=none;align=left;verticalAlign=top;spacingLeft=4;spacingRight=4;overflow=hidden;rotatable=0;points=[[0,0.5],[1,0.5]];portConstraint=eastwest;fontSize=14;" parent="Jlkrtkk8857nLXIoRhml-37" vertex="1"><mxGeometry y="26" width="276" height="41.29" as="geometry"/></mxCell><mxCell id="Jlkrtkk8857nLXIoRhml-39" value="" style="line;strokeWidth=1;fillColor=none;align=left;verticalAlign=middle;spacingTop=-1;spacingLeft=3;spacingRight=3;rotatable=0;labelPosition=right;points=[];portConstraint=eastwest;fontSize=14;" parent="Jlkrtkk8857nLXIoRhml-37" vertex="1"><mxGeometry y="67.28999999999999" width="276" height="12.705882352941178" as="geometry"/></mxCell><mxCell id="Jlkrtkk8857nLXIoRhml-40" value="+ loadUserByUsername(username: String):&#10;UserDetails" style="text;strokeColor=none;fillColor=none;align=left;verticalAlign=top;spacingLeft=4;spacingRight=4;overflow=hidden;rotatable=0;points=[[0,0.5],[1,0.5]];portConstraint=eastwest;fontSize=14;" parent="Jlkrtkk8857nLXIoRhml-37" vertex="1"><mxGeometry y="79.99588235294117" width="276" height="41.294117647058826" as="geometry"/></mxCell><mxCell id="Jlkrtkk8857nLXIoRhml-41" value="&lt;p style=&quot;margin: 0px ; margin-top: 4px ; text-align: center&quot;&gt;&lt;i&gt;&amp;lt;&amp;lt;Interface&amp;gt;&amp;gt;&lt;/i&gt;&lt;/p&gt;&lt;p style=&quot;margin: 0px ; margin-top: 4px ; text-align: center&quot;&gt;&lt;b&gt;UserDetailService&lt;/b&gt;&lt;b&gt;&lt;/b&gt;&lt;b&gt;&lt;/b&gt;&lt;/p&gt;&lt;hr size=&quot;1&quot;&gt;&lt;hr size=&quot;1&quot;&gt;&lt;p style=&quot;margin: 0px ; margin-left: 4px&quot;&gt;+ loadUserByUsername(username: String):&lt;br&gt;UserDetails&lt;/p&gt;" style="verticalAlign=top;align=left;overflow=fill;fontSize=12;fontFamily=Helvetica;html=1;" parent="Jlkrtkk8857nLXIoRhml-35" vertex="1"><mxGeometry x="990" y="36.94999999999999" width="240" height="103.05" as="geometry"/></mxCell><mxCell id="Jlkrtkk8857nLXIoRhml-42" value="&lt;p style=&quot;margin: 0px ; margin-top: 4px ; text-align: center&quot;&gt;&lt;i&gt;&amp;lt;&amp;lt;Interface&amp;gt;&amp;gt;&lt;/i&gt;&lt;b&gt;&lt;br&gt;&lt;/b&gt;&lt;/p&gt;&lt;p style=&quot;margin: 0px ; margin-top: 4px ; text-align: center&quot;&gt;&lt;b&gt;UserService&lt;/b&gt;&lt;br&gt;&lt;b&gt;&lt;/b&gt;&lt;/p&gt;&lt;hr size=&quot;1&quot;&gt;&lt;hr size=&quot;1&quot;&gt;&lt;p style=&quot;margin: 0px ; margin-left: 4px&quot;&gt;+ create(userDto: UserDto)&lt;br&gt;+ findAllUsers(): List&amp;lt;UserDto&amp;gt;&lt;br&gt;+ findUsersByName(username: String): &lt;br&gt;UserDto&lt;/p&gt;&lt;div&gt;&lt;br&gt;&lt;br&gt;&lt;/div&gt;" style="verticalAlign=top;align=left;overflow=fill;fontSize=12;fontFamily=Helvetica;html=1;" parent="Jlkrtkk8857nLXIoRhml-35" vertex="1"><mxGeometry x="353" y="36.94999999999999" width="217" height="123.05" as="geometry"/></mxCell><mxCell id="Jlkrtkk8857nLXIoRhml-43" value="MulltimediaServiceImpl" style="swimlane;fontStyle=1;align=center;verticalAlign=top;childLayout=stackLayout;horizontal=1;startSize=26;horizontalStack=0;resizeParent=1;resizeParentMax=0;resizeLast=0;collapsible=1;marginBottom=0;fontSize=14;" parent="Jlkrtkk8857nLXIoRhml-35" vertex="1"><mxGeometry x="60" y="250" width="200" height="209.99588235294118" as="geometry"/></mxCell><mxCell id="Jlkrtkk8857nLXIoRhml-44" value="- logger: Logger&#10;- multimediaRepository:&#10;MultimedisRepository&#10;- storagePath: String&#10;" style="text;strokeColor=none;fillColor=none;align=left;verticalAlign=top;spacingLeft=4;spacingRight=4;overflow=hidden;rotatable=0;points=[[0,0.5],[1,0.5]];portConstraint=eastwest;fontSize=14;" parent="Jlkrtkk8857nLXIoRhml-43" vertex="1"><mxGeometry y="26" width="200" height="74" as="geometry"/></mxCell><mxCell id="Jlkrtkk8857nLXIoRhml-45" value="" style="line;strokeWidth=1;fillColor=none;align=left;verticalAlign=middle;spacingTop=-1;spacingLeft=3;spacingRight=3;rotatable=0;labelPosition=right;points=[];portConstraint=eastwest;fontSize=14;" parent="Jlkrtkk8857nLXIoRhml-43" vertex="1"><mxGeometry y="100" width="200" height="12.705882352941178" as="geometry"/></mxCell><mxCell id="Jlkrtkk8857nLXIoRhml-46" value="+ getMultimediaById(id: long): &#10;Optional&lt;MultimediaDto&gt;&#10;+ create(multimedia: byte[]): &#10;String&#10;+ deleteById(id: Long)&#10;" style="text;strokeColor=none;fillColor=none;align=left;verticalAlign=top;spacingLeft=4;spacingRight=4;overflow=hidden;rotatable=0;points=[[0,0.5],[1,0.5]];portConstraint=eastwest;fontSize=14;" parent="Jlkrtkk8857nLXIoRhml-43" vertex="1"><mxGeometry y="112.70588235294117" width="200" height="97.29" as="geometry"/></mxCell><mxCell id="Jlkrtkk8857nLXIoRhml-47" value="&lt;p style=&quot;margin: 0px ; margin-top: 4px ; text-align: center&quot;&gt;&lt;i&gt;&amp;lt;&amp;lt;Interface&amp;gt;&amp;gt;&lt;/i&gt;&lt;/p&gt;&lt;p style=&quot;margin: 0px ; margin-top: 4px ; text-align: center&quot;&gt;&lt;b&gt;Mulltimedia&lt;/b&gt;&lt;b&gt;Service&lt;/b&gt;&lt;b&gt;&lt;/b&gt;&lt;/p&gt;&lt;hr size=&quot;1&quot;&gt;&lt;hr size=&quot;1&quot;&gt;&lt;p style=&quot;margin: 0px ; margin-left: 4px&quot;&gt;+ getMultimediaById(id: long): &lt;br&gt;Optional&amp;lt;MultimediaDto&amp;gt;&lt;br&gt;+ create(multimedia: byte[]): &lt;br&gt;String&lt;br&gt;+ deleteById(id: Long)&lt;/p&gt;&lt;div&gt;&lt;br&gt;&lt;br&gt;&lt;/div&gt;" style="verticalAlign=top;align=left;overflow=fill;fontSize=12;fontFamily=Helvetica;html=1;" parent="Jlkrtkk8857nLXIoRhml-35" vertex="1"><mxGeometry x="370" y="323.53" width="190" height="136.47" as="geometry"/></mxCell><mxCell id="Jlkrtkk8857nLXIoRhml-48" value="UserServiceImpl" style="swimlane;fontStyle=1;align=center;verticalAlign=top;childLayout=stackLayout;horizontal=1;startSize=26;horizontalStack=0;resizeParent=1;resizeParentMax=0;resizeLast=0;collapsible=1;marginBottom=0;fontSize=14;" parent="Jlkrtkk8857nLXIoRhml-35" vertex="1"><mxGeometry x="60" y="30" width="253" height="189.99588235294118" as="geometry"/></mxCell><mxCell id="Jlkrtkk8857nLXIoRhml-49" value="- userRepository: &#10;UserRepository&#10;- passwordEncoder: &#10;BCryptPasswordEncoder&#10;" style="text;strokeColor=none;fillColor=none;align=left;verticalAlign=top;spacingLeft=4;spacingRight=4;overflow=hidden;rotatable=0;points=[[0,0.5],[1,0.5]];portConstraint=eastwest;fontSize=14;fontStyle=0" parent="Jlkrtkk8857nLXIoRhml-48" vertex="1"><mxGeometry y="26" width="253" height="69.88" as="geometry"/></mxCell><mxCell id="Jlkrtkk8857nLXIoRhml-50" value="" style="line;strokeWidth=1;fillColor=none;align=left;verticalAlign=middle;spacingTop=-1;spacingLeft=3;spacingRight=3;rotatable=0;labelPosition=right;points=[];portConstraint=eastwest;fontSize=14;" parent="Jlkrtkk8857nLXIoRhml-48" vertex="1"><mxGeometry y="95.88" width="253" height="12.705882352941176" as="geometry"/></mxCell><mxCell id="Jlkrtkk8857nLXIoRhml-51" value="+ create(userDto: UserDto)&#10;+ findAllUsers(): List&lt;UserDto&gt;&#10;+ findUsersByName(username: String): &#10;UserDto&#10;" style="text;strokeColor=none;fillColor=none;align=left;verticalAlign=top;spacingLeft=4;spacingRight=4;overflow=hidden;rotatable=0;points=[[0,0.5],[1,0.5]];portConstraint=eastwest;fontSize=14;" parent="Jlkrtkk8857nLXIoRhml-48" vertex="1"><mxGeometry y="108.58588235294117" width="253" height="81.41" as="geometry"/></mxCell><mxCell id="Jlkrtkk8857nLXIoRhml-52" value="" style="endArrow=block;dashed=1;endFill=0;endSize=12;html=1;rounded=0;fontSize=14;" parent="Jlkrtkk8857nLXIoRhml-35" source="Jlkrtkk8857nLXIoRhml-37" target="Jlkrtkk8857nLXIoRhml-41" edge="1"><mxGeometry width="160" relative="1" as="geometry"><mxPoint x="910" y="975.5882352941176" as="sourcePoint"/><mxPoint x="865.6944444444443" y="929.5294117647059" as="targetPoint"/><Array as="points"/></mxGeometry></mxCell><mxCell id="Jlkrtkk8857nLXIoRhml-53" value="" style="endArrow=block;dashed=1;endFill=0;endSize=12;html=1;rounded=0;fontSize=14;entryX=0;entryY=0.75;entryDx=0;entryDy=0;" parent="Jlkrtkk8857nLXIoRhml-35" source="Jlkrtkk8857nLXIoRhml-43" target="Jlkrtkk8857nLXIoRhml-47" edge="1"><mxGeometry width="160" relative="1" as="geometry"><mxPoint x="170" y="1471.9117647058822" as="sourcePoint"/><mxPoint x="330" y="1471.9117647058822" as="targetPoint"/></mxGeometry></mxCell><mxCell id="Jlkrtkk8857nLXIoRhml-54" value="" style="endArrow=block;dashed=1;endFill=0;endSize=12;html=1;rounded=0;fontSize=14;entryX=0;entryY=0.75;entryDx=0;entryDy=0;" parent="Jlkrtkk8857nLXIoRhml-35" source="Jlkrtkk8857nLXIoRhml-48" target="Jlkrtkk8857nLXIoRhml-42" edge="1"><mxGeometry width="160" relative="1" as="geometry"><mxPoint x="170" y="1253.5294117647059" as="sourcePoint"/><mxPoint x="330" y="1253.5294117647059" as="targetPoint"/></mxGeometry></mxCell><mxCell id="Jlkrtkk8857nLXIoRhml-55" value="" style="endArrow=classic;html=1;rounded=0;fontSize=14;" parent="1" edge="1"><mxGeometry width="50" height="50" relative="1" as="geometry"><mxPoint x="530.1785714285716" y="410" as="sourcePoint"/><mxPoint x="568.75" y="450" as="targetPoint"/></mxGeometry></mxCell><mxCell id="Jlkrtkk8857nLXIoRhml-56" value="" style="endArrow=classic;html=1;rounded=0;fontSize=14;" parent="1" source="Jlkrtkk8857nLXIoRhml-36" edge="1"><mxGeometry width="50" height="50" relative="1" as="geometry"><mxPoint x="389" y="670" as="sourcePoint"/><mxPoint x="595.1388888888891" y="660" as="targetPoint"/></mxGeometry></mxCell><mxCell id="Jlkrtkk8857nLXIoRhml-57" value="AuthController" style="swimlane;fontStyle=1;align=center;verticalAlign=top;childLayout=stackLayout;horizontal=1;startSize=26;horizontalStack=0;resizeParent=1;resizeParentMax=0;resizeLast=0;collapsible=1;marginBottom=0;fontSize=14;" parent="1" vertex="1"><mxGeometry x="390" y="190" width="220" height="180" as="geometry"/></mxCell><mxCell id="Jlkrtkk8857nLXIoRhml-58" value="- userService: UserService" style="text;strokeColor=none;fillColor=none;align=left;verticalAlign=top;spacingLeft=4;spacingRight=4;overflow=hidden;rotatable=0;points=[[0,0.5],[1,0.5]];portConstraint=eastwest;fontSize=14;" parent="Jlkrtkk8857nLXIoRhml-57" vertex="1"><mxGeometry y="26" width="220" height="26" as="geometry"/></mxCell><mxCell id="Jlkrtkk8857nLXIoRhml-59" value="" style="line;strokeWidth=1;fillColor=none;align=left;verticalAlign=middle;spacingTop=-1;spacingLeft=3;spacingRight=3;rotatable=0;labelPosition=right;points=[];portConstraint=eastwest;fontSize=14;" parent="Jlkrtkk8857nLXIoRhml-57" vertex="1"><mxGeometry y="52" width="220" height="8" as="geometry"/></mxCell><mxCell id="Jlkrtkk8857nLXIoRhml-60" value="+ loginPage(): String&#10;+ registerPage(model: Model):&#10;String&#10;+ registerNewUser(user: UserDto,&#10;bindingResult: BindingResult):&#10;String&#10;&#10;&#10;" style="text;strokeColor=none;fillColor=none;align=left;verticalAlign=top;spacingLeft=4;spacingRight=4;overflow=hidden;rotatable=0;points=[[0,0.5],[1,0.5]];portConstraint=eastwest;fontSize=14;" parent="Jlkrtkk8857nLXIoRhml-57" vertex="1"><mxGeometry y="60" width="220" height="120" as="geometry"/></mxCell><mxCell id="Jlkrtkk8857nLXIoRhml-61" value="UserDto" style="swimlane;fontStyle=0;childLayout=stackLayout;horizontal=1;startSize=26;fillColor=none;horizontalStack=0;resizeParent=1;resizeParentMax=0;resizeLast=0;collapsible=1;marginBottom=0;fontSize=14;" parent="1" vertex="1"><mxGeometry x="370" y="477.0025" width="170" height="125.75" as="geometry"/></mxCell><mxCell id="Jlkrtkk8857nLXIoRhml-62" value="- id: Long&#10;" style="text;strokeColor=none;fillColor=none;align=left;verticalAlign=top;spacingLeft=4;spacingRight=4;overflow=hidden;rotatable=0;points=[[0,0.5],[1,0.5]];portConstraint=eastwest;fontSize=14;" parent="Jlkrtkk8857nLXIoRhml-61" vertex="1"><mxGeometry y="26" width="170" height="21" as="geometry"/></mxCell><mxCell id="Jlkrtkk8857nLXIoRhml-63" value="- username: String&#10;- password: String&#10;- repeatPassword: String" style="text;strokeColor=none;fillColor=none;align=left;verticalAlign=top;spacingLeft=4;spacingRight=4;overflow=hidden;rotatable=0;points=[[0,0.5],[1,0.5]];portConstraint=eastwest;fontSize=14;" parent="Jlkrtkk8857nLXIoRhml-61" vertex="1"><mxGeometry y="47" width="170" height="52.5" as="geometry"/></mxCell><mxCell id="Jlkrtkk8857nLXIoRhml-64" value="- avatar: MultiPartFile[]" style="text;strokeColor=none;fillColor=none;align=left;verticalAlign=top;spacingLeft=4;spacingRight=4;overflow=hidden;rotatable=0;points=[[0,0.5],[1,0.5]];portConstraint=eastwest;fontSize=14;" parent="Jlkrtkk8857nLXIoRhml-61" vertex="1"><mxGeometry y="99.5" width="170" height="26.25" as="geometry"/></mxCell><mxCell id="Jlkrtkk8857nLXIoRhml-65" value="MultimediaDto" style="swimlane;fontStyle=0;childLayout=stackLayout;horizontal=1;startSize=26;fillColor=none;horizontalStack=0;resizeParent=1;resizeParentMax=0;resizeLast=0;collapsible=1;marginBottom=0;fontSize=14;" parent="1" vertex="1"><mxGeometry x="590" y="477" width="140" height="99.5" as="geometry"/></mxCell><mxCell id="Jlkrtkk8857nLXIoRhml-66" value="- contentType: String" style="text;strokeColor=none;fillColor=none;align=left;verticalAlign=top;spacingLeft=4;spacingRight=4;overflow=hidden;rotatable=0;points=[[0,0.5],[1,0.5]];portConstraint=eastwest;fontSize=14;" parent="Jlkrtkk8857nLXIoRhml-65" vertex="1"><mxGeometry y="26" width="140" height="21" as="geometry"/></mxCell><mxCell id="Jlkrtkk8857nLXIoRhml-67" value="- path: Path" style="text;strokeColor=none;fillColor=none;align=left;verticalAlign=top;spacingLeft=4;spacingRight=4;overflow=hidden;rotatable=0;points=[[0,0.5],[1,0.5]];portConstraint=eastwest;fontSize=14;" parent="Jlkrtkk8857nLXIoRhml-65" vertex="1"><mxGeometry y="47" width="140" height="26.25" as="geometry"/></mxCell><mxCell id="Jlkrtkk8857nLXIoRhml-68" value="- data: byte[]" style="text;strokeColor=none;fillColor=none;align=left;verticalAlign=top;spacingLeft=4;spacingRight=4;overflow=hidden;rotatable=0;points=[[0,0.5],[1,0.5]];portConstraint=eastwest;fontSize=14;" parent="Jlkrtkk8857nLXIoRhml-65" vertex="1"><mxGeometry y="73.25" width="140" height="26.25" as="geometry"/></mxCell><mxCell id="Jlkrtkk8857nLXIoRhml-69" value="ChatMessage" style="swimlane;fontStyle=0;childLayout=stackLayout;horizontal=1;startSize=26;fillColor=none;horizontalStack=0;resizeParent=1;resizeParentMax=0;resizeLast=0;collapsible=1;marginBottom=0;fontSize=14;" parent="1" vertex="1"><mxGeometry x="790" y="477.0025" width="150" height="110" as="geometry"/></mxCell><mxCell id="Jlkrtkk8857nLXIoRhml-70" value="- type: String        " style="text;strokeColor=none;fillColor=none;align=left;verticalAlign=top;spacingLeft=4;spacingRight=4;overflow=hidden;rotatable=0;points=[[0,0.5],[1,0.5]];portConstraint=eastwest;fontSize=14;" parent="Jlkrtkk8857nLXIoRhml-69" vertex="1"><mxGeometry y="26" width="150" height="21" as="geometry"/></mxCell><mxCell id="Jlkrtkk8857nLXIoRhml-71" value="- content: String" style="text;strokeColor=none;fillColor=none;align=left;verticalAlign=top;spacingLeft=4;spacingRight=4;overflow=hidden;rotatable=0;points=[[0,0.5],[1,0.5]];portConstraint=eastwest;fontSize=14;" parent="Jlkrtkk8857nLXIoRhml-69" vertex="1"><mxGeometry y="47" width="150" height="17.5" as="geometry"/></mxCell><mxCell id="Jlkrtkk8857nLXIoRhml-72" value="- senderName: String&#10;- resieverName: String&#10;" style="text;strokeColor=none;fillColor=none;align=left;verticalAlign=top;spacingLeft=4;spacingRight=4;overflow=hidden;rotatable=0;points=[[0,0.5],[1,0.5]];portConstraint=eastwest;fontSize=14;" parent="Jlkrtkk8857nLXIoRhml-69" vertex="1"><mxGeometry y="64.5" width="150" height="45.5" as="geometry"/></mxCell><mxCell id="Jlkrtkk8857nLXIoRhml-73" value="" style="endArrow=classic;html=1;rounded=0;fontSize=15;" parent="1" source="Jlkrtkk8857nLXIoRhml-75" edge="1"><mxGeometry width="50" height="50" relative="1" as="geometry"><mxPoint x="150" y="460" as="sourcePoint"/><mxPoint x="206.304347826087" y="410" as="targetPoint"/></mxGeometry></mxCell><mxCell id="Jlkrtkk8857nLXIoRhml-74" value="" style="group" parent="1" vertex="1" connectable="0"><mxGeometry x="-440" y="440" width="690" height="360" as="geometry"/></mxCell><mxCell id="Jlkrtkk8857nLXIoRhml-75" value="&lt;div align=&quot;left&quot;&gt;&lt;b&gt;WebSocket&lt;/b&gt;&lt;/div&gt;" style="rounded=0;whiteSpace=wrap;html=1;fontSize=15;align=left;" parent="Jlkrtkk8857nLXIoRhml-74" vertex="1"><mxGeometry width="690" height="360" as="geometry"/></mxCell><mxCell id="Jlkrtkk8857nLXIoRhml-76" value="&lt;div&gt;«interface»&lt;/div&gt;&lt;div&gt;&lt;b&gt;WebSocketMessageBrokerConfigurer&lt;/b&gt;&lt;/div&gt;" style="html=1;fontSize=15;" parent="Jlkrtkk8857nLXIoRhml-74" vertex="1"><mxGeometry x="225.30612244897958" y="26.666666666666664" width="394.2857142857143" height="66.66666666666666" as="geometry"/></mxCell><mxCell id="Jlkrtkk8857nLXIoRhml-77" value="WebSocketConfig" style="swimlane;fontStyle=1;align=center;verticalAlign=top;childLayout=stackLayout;horizontal=1;startSize=26;horizontalStack=0;resizeParent=1;resizeParentMax=0;resizeLast=0;collapsible=1;marginBottom=0;fontSize=15;" parent="Jlkrtkk8857nLXIoRhml-74" vertex="1"><mxGeometry x="440" y="176.00333333333333" width="233.47" height="129.99666666666667" as="geometry"/></mxCell><mxCell id="Jlkrtkk8857nLXIoRhml-78" value="" style="line;strokeWidth=1;fillColor=none;align=left;verticalAlign=middle;spacingTop=-1;spacingLeft=3;spacingRight=3;rotatable=0;labelPosition=right;points=[];portConstraint=eastwest;fontSize=15;" parent="Jlkrtkk8857nLXIoRhml-77" vertex="1"><mxGeometry y="26" width="233.47" height="10.666666666666666" as="geometry"/></mxCell><mxCell id="Jlkrtkk8857nLXIoRhml-79" value="+ registryStompEndpoints(&#10;StompEndpointRegistry registry)&#10;+ configureMessageBroker(&#10;MessageBrokerRegistry registry)&#10;" style="text;strokeColor=none;fillColor=none;align=left;verticalAlign=top;spacingLeft=4;spacingRight=4;overflow=hidden;rotatable=0;points=[[0,0.5],[1,0.5]];portConstraint=eastwest;fontSize=15;" parent="Jlkrtkk8857nLXIoRhml-77" vertex="1"><mxGeometry y="36.666666666666664" width="233.47" height="93.33" as="geometry"/></mxCell><mxCell id="Jlkrtkk8857nLXIoRhml-80" value="WebSocketEventListener" style="swimlane;fontStyle=1;align=center;verticalAlign=top;childLayout=stackLayout;horizontal=1;startSize=26;horizontalStack=0;resizeParent=1;resizeParentMax=0;resizeLast=0;collapsible=1;marginBottom=0;fontSize=15;" parent="Jlkrtkk8857nLXIoRhml-74" vertex="1"><mxGeometry x="120.00285714285714" y="122.66666666666666" width="300" height="219.99666666666667" as="geometry"/></mxCell><mxCell id="Jlkrtkk8857nLXIoRhml-81" value="- messageTemplate: &#10;SimpMessageSendingOperatoins&#10;- userService: UserService&#10;- logger: Logger&#10;&#10;&#10;&#10;" style="text;strokeColor=none;fillColor=none;align=left;verticalAlign=top;spacingLeft=4;spacingRight=4;overflow=hidden;rotatable=0;points=[[0,0.5],[1,0.5]];portConstraint=eastwest;fontSize=15;" parent="Jlkrtkk8857nLXIoRhml-80" vertex="1"><mxGeometry y="26" width="300" height="84" as="geometry"/></mxCell><mxCell id="Jlkrtkk8857nLXIoRhml-82" value="" style="line;strokeWidth=1;fillColor=none;align=left;verticalAlign=middle;spacingTop=-1;spacingLeft=3;spacingRight=3;rotatable=0;labelPosition=right;points=[];portConstraint=eastwest;fontSize=15;" parent="Jlkrtkk8857nLXIoRhml-80" vertex="1"><mxGeometry y="110" width="300" height="10.666666666666666" as="geometry"/></mxCell><mxCell id="Jlkrtkk8857nLXIoRhml-83" value="+ connectListener(event: &#10;SessionConnectEvent)&#10;+ disconnectListener(event: &#10;SessionConnectEvent)&#10;" style="text;strokeColor=none;fillColor=none;align=left;verticalAlign=top;spacingLeft=4;spacingRight=4;overflow=hidden;rotatable=0;points=[[0,0.5],[1,0.5]];portConstraint=eastwest;fontSize=15;" parent="Jlkrtkk8857nLXIoRhml-80" vertex="1"><mxGeometry y="120.66666666666667" width="300" height="99.33" as="geometry"/></mxCell><mxCell id="Jlkrtkk8857nLXIoRhml-84" value="" style="endArrow=block;dashed=1;endFill=0;endSize=12;html=1;rounded=0;fontSize=15;" parent="Jlkrtkk8857nLXIoRhml-74" source="Jlkrtkk8857nLXIoRhml-76" target="Jlkrtkk8857nLXIoRhml-77" edge="1"><mxGeometry width="160" relative="1" as="geometry"><mxPoint y="720" as="sourcePoint"/><mxPoint x="225.30612244897958" y="720" as="targetPoint"/></mxGeometry></mxCell><mxCell id="Jlkrtkk8857nLXIoRhml-85" value="" style="endArrow=classic;html=1;rounded=0;fontSize=15;" parent="1" source="Jlkrtkk8857nLXIoRhml-75" edge="1"><mxGeometry width="50" height="50" relative="1" as="geometry"><mxPoint x="137.75" y="450" as="sourcePoint"/><mxPoint x="320" y="584.7385620915034" as="targetPoint"/></mxGeometry></mxCell><mxCell id="Jlkrtkk8857nLXIoRhml-86" value="Actor" style="shape=umlActor;verticalLabelPosition=bottom;verticalAlign=top;html=1;outlineConnect=0;" parent="1" vertex="1"><mxGeometry x="220" y="-140" width="30" height="60" as="geometry"/></mxCell><mxCell id="Jlkrtkk8857nLXIoRhml-87" value="" style="swimlane;startSize=0;" parent="1" vertex="1"><mxGeometry x="-110" y="140" width="760" height="270" as="geometry"/></mxCell><mxCell id="Jlkrtkk8857nLXIoRhml-88" value="" style="swimlane;startSize=0;" parent="1" vertex="1"><mxGeometry x="320" y="450" width="640" height="210" as="geometry"/></mxCell></root></mxGraphModel></diagram></mxfile>